<?xml version="1.0" encoding="utf-8"?>
<!-- Generator: Adobe Illustrator 16.0.3, SVG Export Plug-In . SVG Version: 6.00 Build 0)  -->
<!DOCTYPE svg PUBLIC "-//W3C//DTD SVG 1.1//EN" "http://www.w3.org/Graphics/SVG/1.1/DTD/svg11.dtd">
<svg version="1.1" xmlns="http://www.w3.org/2000/svg" xmlns:xlink="http://www.w3.org/1999/xlink" x="0px" y="0px" width="297px"
	 height="459px" viewBox="0 0 297 459" enable-background="new 0 0 297 459" xml:space="preserve">
<g id="Capa_2" display="none">
</g>
<g id="Capa_5">
	<path fill="#382620" d="M22.409,305.547c0,0-0.187,4.658-0.187,7.012c0,70.993,57.13,128.546,127.6,128.546
		c70.473,0,127.604-57.553,127.604-128.546c0-31.275-11.088-59.942-29.519-82.229l2.48-9.502
		c16.921-21.81,27.006-49.265,27.006-79.092c0-41.83-19.833-78.994-50.544-102.468C205.438,22.9,178.74,13.188,149.791,13.188
		c-9.189,0-18.152,0.979-26.791,2.838C67.06,28.068,24.704,77.045,22.298,136.399C22.227,138.169,22.409,305.547,22.409,305.547"/>
</g>
<g id="Capa_4">
	<path fill="#DA3436" d="M133.927,266.257c0,0,9.355,0.129,14.488,0.026c2.129-0.044,4.264,0.12,6.404,0.094
		c15.421-0.179,31.063-3.328,46.125-9.77c61.433-26.278,89.93-97.382,63.653-158.816c-19.483-45.549-63.611-72.993-110.168-73.428
		c-6.806-0.063-20.502-0.07-20.502-0.07V266.257z"/>
	<path fill="#382620" d="M281.974,313.513c0,71.396-57.878,129.273-129.274,129.273c-8.091,0-16.009-0.744-23.688-2.165
		c-0.132-0.024-3.995-0.808-3.995-0.808V187.209c0,0,18.181-2.971,27.683-2.971C224.096,184.238,281.974,242.115,281.974,313.513z"
		/>
	<path fill="#382620" d="M79.33,203.662c50.785-33.091,119.482-27.352,164.053,17.219c51.158,51.158,51.159,134.104,0,185.262
		c-49.69,49.691-129.371,51.116-180.782,4.276l40.138-41.535l12.021,5.893l-32.645,34.576
		c46.117,33.243,110.838,29.115,152.337-12.384c46.083-46.083,46.082-120.799,0-166.881c-39.632-39.631-100.439-45.18-146-16.645
		L79.33,203.662z"/>
	<path fill="#C7ADA2" d="M274.756,314.375c0,68.806-55.777,124.583-124.583,124.583c-7.798,0-15.428-0.717-22.829-2.087
		c-0.126-0.023-3.85-0.778-3.85-0.778V192.654c0,0,17.521-2.863,26.678-2.863C218.979,189.791,274.756,245.568,274.756,314.375z"/>
</g>
<g id="lineas_blancas">
	
		<ellipse fill="none" stroke="#FFFFFF" stroke-width="2" stroke-miterlimit="10" cx="151.333" cy="149.001" rx="87.57" ry="127.999"/>
	<ellipse fill="none" stroke="#FFFFFF" stroke-width="2" stroke-miterlimit="10" cx="151" cy="149.001" rx="48" ry="127.999"/>
	
		<ellipse fill="none" stroke="#FFFFFF" stroke-width="2" stroke-miterlimit="10" cx="149.167" cy="315.062" rx="87.57" ry="125.323"/>
	<ellipse fill="none" stroke="#FFFFFF" stroke-width="2" stroke-miterlimit="10" cx="148.834" cy="315.062" rx="48" ry="125.323"/>
</g>
<g id="Lineas_medio">
	<line fill="none" stroke="#FFFFFF" stroke-width="2" stroke-miterlimit="10" x1="151" y1="21" x2="148.834" y2="440.385"/>
	<line fill="none" stroke="#FFFFFF" stroke-width="2" stroke-miterlimit="10" x1="22.282" y1="149" x2="272.333" y2="149"/>
	<line fill="none" stroke="#FFFFFF" stroke-width="2" stroke-miterlimit="10" x1="22.333" y1="312.385" x2="274.756" y2="312.385"/>
</g>
<g id="Capa_1">
	<path fill="#6D6D6D" d="M123.722,185.619C64.413,198.13,19.896,250.765,19.896,313.797c0,72.349,58.65,131,131,131
		c70.273,0,127.624-55.335,130.856-124.809L224,319l-4.333,12.667l47.532,1.365c-9.104,56.116-57.786,98.962-116.475,98.962
		c-65.172,0-118.003-52.832-118.003-118.003c0-56.047,39.074-102.968,91.468-115.007L123.722,185.619z"/>
	<path fill="none" stroke="#FF0000" stroke-miterlimit="10" d="M123.5,197.5"/>
	<path fill="none" stroke="#FF0000" stroke-miterlimit="10" d="M123.5,187.5"/>
</g>
<g id="Capa_3">
	<path fill="#6D6D6D" d="M134.153,27.868c0,0,51.347-10.701,96.124,31.005c12.682,11.812,23.899,25.763,31.174,42.769
		c25.629,59.92-2.166,129.272-62.086,154.902c-14.69,6.283-29.947,9.355-44.988,9.53c-2.087,0.024-4.169-0.135-6.246-0.093
		c-5.006,0.101-14.131-0.024-14.131-0.024L134.153,27.868z M123,278.847c0,0,21.126-0.062,26.249,0.077
		c18.32,0.497,37.038-2.861,54.992-10.541c66.521-28.453,97.379-105.445,68.927-171.964c-9.912-23.17-26.183-41.669-44.983-56.028
		C176.501,0.917,123.919,16.014,123,16.125V278.847z"/>
</g>
</svg>
